<svg width="118" height="93" viewBox="0 0 118 93" fill="none" xmlns="http://www.w3.org/2000/svg">
<path d="M4.04545 62V15.4545H13.8864V53.8864H33.8409V62H4.04545ZM40.1761 62V27.0909H49.858V62H40.1761ZM45.0398 22.5909C43.6004 22.5909 42.3655 22.1136 41.3352 21.1591C40.3201 20.1894 39.8125 19.0303 39.8125 17.6818C39.8125 16.3485 40.3201 15.2045 41.3352 14.25C42.3655 13.2803 43.6004 12.7955 45.0398 12.7955C46.4792 12.7955 47.7064 13.2803 48.7216 14.25C49.7519 15.2045 50.267 16.3485 50.267 17.6818C50.267 19.0303 49.7519 20.1894 48.7216 21.1591C47.7064 22.1136 46.4792 22.5909 45.0398 22.5909ZM76.3864 27.0909V34.3636H54.8409V27.0909H76.3864ZM59.7727 62V24.5682C59.7727 22.0379 60.2652 19.9394 61.25 18.2727C62.25 16.6061 63.6136 15.3561 65.3409 14.5227C67.0682 13.6894 69.0303 13.2727 71.2273 13.2727C72.7121 13.2727 74.0682 13.3864 75.2955 13.6136C76.5379 13.8409 77.4621 14.0455 78.0682 14.2273L76.3409 21.5C75.9621 21.3788 75.4924 21.2651 74.9318 21.1591C74.3864 21.053 73.8258 21 73.25 21C71.8258 21 70.8333 21.3333 70.2727 22C69.7121 22.6515 69.4318 23.5682 69.4318 24.75V62H59.7727ZM96.9602 62.6818C93.3693 62.6818 90.2784 61.9545 87.6875 60.5C85.1117 59.0303 83.1269 56.9545 81.733 54.2727C80.339 51.5758 79.642 48.3864 79.642 44.7045C79.642 41.1136 80.339 37.9621 81.733 35.25C83.1269 32.5379 85.089 30.4242 87.6193 28.9091C90.1648 27.3939 93.1496 26.6364 96.5739 26.6364C98.8769 26.6364 101.021 27.0076 103.006 27.75C105.006 28.4773 106.748 29.5758 108.233 31.0455C109.733 32.5152 110.9 34.3636 111.733 36.5909C112.566 38.803 112.983 41.3939 112.983 44.3636V47.0227H83.5057V41.0227H103.869C103.869 39.6288 103.566 38.3939 102.96 37.3182C102.354 36.2424 101.513 35.4015 100.438 34.7955C99.3769 34.1742 98.142 33.8636 96.733 33.8636C95.2633 33.8636 93.9602 34.2045 92.8239 34.8864C91.7027 35.553 90.8239 36.4545 90.1875 37.5909C89.5511 38.7121 89.2254 39.9621 89.2102 41.3409V47.0455C89.2102 48.7727 89.5284 50.2652 90.1648 51.5227C90.8163 52.7803 91.733 53.75 92.9148 54.4318C94.0966 55.1136 95.4981 55.4545 97.1193 55.4545C98.1951 55.4545 99.1799 55.303 100.074 55C100.968 54.697 101.733 54.2424 102.369 53.6364C103.006 53.0303 103.491 52.2879 103.824 51.4091L112.778 52C112.324 54.1515 111.392 56.0303 109.983 57.6364C108.589 59.2273 106.786 60.4697 104.574 61.3636C102.377 62.2424 99.839 62.6818 96.9602 62.6818Z" fill="#04C3C8"/>
<path d="M58.541 74.9766C58.541 75.0586 58.5469 75.1934 58.5586 75.3809C58.5703 75.5566 58.6055 75.7383 58.6641 75.9258C58.7227 76.1133 58.8105 76.2773 58.9277 76.418C59.0566 76.5586 59.2383 76.6289 59.4727 76.6289C59.8359 76.6289 60.1465 76.5 60.4043 76.2422C60.6738 75.9844 60.9023 75.6621 61.0898 75.2754C61.2891 74.8887 61.4473 74.4727 61.5645 74.0273C61.6934 73.5703 61.7988 73.1426 61.8809 72.7441C61.9512 72.3809 62.0566 72.1172 62.1973 71.9531C62.3496 71.7891 62.5078 71.7012 62.6719 71.6895C62.8477 71.666 63.0234 71.707 63.1992 71.8125C63.375 71.918 63.5273 72.0586 63.6562 72.2344C63.7852 72.3984 63.8789 72.5859 63.9375 72.7969C64.0078 73.0078 64.0195 73.207 63.9727 73.3945C63.8086 73.9922 63.5918 74.6191 63.3223 75.2754C63.0645 75.9316 62.7305 76.5352 62.3203 77.0859C61.9102 77.6367 61.418 78.0938 60.8438 78.457C60.2695 78.8203 59.5957 79.002 58.8223 79.002C58.3418 79.002 57.9141 78.9082 57.5391 78.7207C57.1758 78.5449 56.8594 78.3047 56.5898 78C56.332 77.6953 56.1328 77.3379 55.9922 76.9277C55.8633 76.5176 55.7988 76.084 55.7988 75.627V67.1367L49.9629 67.084V67.8926C50.7832 68.9121 51.5215 69.9668 52.1777 71.0566C52.8457 72.1348 53.4082 73.2715 53.8652 74.4668C54.334 75.6621 54.6914 76.9219 54.9375 78.2461C55.1953 79.5703 55.3242 80.9766 55.3242 82.4648C55.3242 83.9648 55.207 85.3477 54.9727 86.6133C54.75 87.8906 54.4277 88.9863 54.0059 89.9004C53.5957 90.8262 53.0918 91.5469 52.4941 92.0625C51.9082 92.5781 51.2578 92.8359 50.543 92.8359C49.9102 92.8359 49.3828 92.6777 48.9609 92.3613C48.5391 92.0566 48.1992 91.6465 47.9414 91.1309C47.6953 90.627 47.5137 90.0527 47.3965 89.4082C47.291 88.7637 47.2383 88.1074 47.2383 87.4395V67.6992C47.2031 67.6641 47.1621 67.623 47.1152 67.5762C47.0801 67.5293 47.0449 67.4883 47.0098 67.4531C46.7285 67.1602 46.4707 66.8965 46.2363 66.6621C46.0137 66.4277 45.9023 66.1641 45.9023 65.8711C45.9023 65.6836 45.9668 65.502 46.0957 65.3262C46.2246 65.1504 46.4355 65.0449 46.7285 65.0098C46.7871 65.0098 46.8516 65.0039 46.9219 64.9922C47.0039 64.9805 47.1094 64.9746 47.2383 64.9746V55.0957C47.2383 54.8379 47.2148 54.6328 47.168 54.4805C47.1328 54.3281 47.0918 54.2109 47.0449 54.1289C47.0098 54.0352 46.9688 53.9648 46.9219 53.918C46.8867 53.8594 46.8691 53.8008 46.8691 53.7422C46.8691 53.6719 46.9043 53.6133 46.9746 53.5664C47.0449 53.5195 47.1387 53.4785 47.2559 53.4434C47.373 53.4082 47.4961 53.3848 47.625 53.373C47.7656 53.3496 47.9004 53.3379 48.0293 53.3379C48.627 53.3379 49.0957 53.4961 49.4355 53.8125C49.7871 54.1172 49.9629 54.4863 49.9629 54.9199V64.7812C50.7715 64.7344 51.5332 64.6758 52.248 64.6055C52.9746 64.5352 53.6191 64.4648 54.1816 64.3945C54.7441 64.3242 55.2129 64.2656 55.5879 64.2188C55.9629 64.1719 56.2031 64.1484 56.3086 64.1484C56.8008 64.1484 57.1934 64.207 57.4863 64.3242C57.7793 64.4297 58.002 64.5762 58.1543 64.7637C58.3184 64.9395 58.4238 65.1387 58.4707 65.3613C58.5176 65.584 58.541 65.8008 58.541 66.0117V74.9766ZM52.5996 82.4648C52.5996 81.6445 52.541 80.7891 52.4238 79.8984C52.3184 79.0078 52.1543 78.1055 51.9316 77.1914C51.709 76.2773 51.4336 75.3633 51.1055 74.4492C50.7773 73.5352 50.3965 72.6445 49.9629 71.7773V87.4395C49.9629 87.7207 49.9746 88.0254 49.998 88.3535C50.0215 88.6816 50.0625 88.9805 50.1211 89.25C50.1914 89.5195 50.2793 89.7422 50.3848 89.918C50.502 90.1055 50.6484 90.1992 50.8242 90.1992C51.082 90.1992 51.3223 90.0117 51.5449 89.6367C51.7676 89.2617 51.9551 88.7285 52.1074 88.0371C52.2598 87.3574 52.377 86.543 52.459 85.5938C52.5527 84.6562 52.5996 83.6133 52.5996 82.4648ZM57.3457 60.6855C57.0527 60.6855 56.7715 60.627 56.502 60.5098C56.2441 60.3926 56.0156 60.2344 55.8164 60.0352C55.6289 59.8359 55.4766 59.6074 55.3594 59.3496C55.2422 59.0801 55.1836 58.793 55.1836 58.4883C55.1836 58.1719 55.2422 57.8789 55.3594 57.6094C55.4766 57.3398 55.6289 57.1113 55.8164 56.9238C56.0156 56.7246 56.2441 56.5723 56.502 56.4668C56.7715 56.3496 57.0527 56.291 57.3457 56.291C57.6621 56.291 57.9551 56.3496 58.2246 56.4668C58.4941 56.5723 58.7227 56.7246 58.9102 56.9238C59.1094 57.1113 59.2617 57.3398 59.3672 57.6094C59.4844 57.8789 59.543 58.1719 59.543 58.4883C59.543 58.793 59.4844 59.0801 59.3672 59.3496C59.2617 59.6074 59.1094 59.8359 58.9102 60.0352C58.7227 60.2344 58.4941 60.3926 58.2246 60.5098C57.9551 60.627 57.6621 60.6855 57.3457 60.6855ZM58.7871 61.0723C59.0566 61.0957 59.3555 61.1133 59.6836 61.125C59.9648 61.1484 60.3047 61.166 60.7031 61.1777C61.1016 61.1777 61.5469 61.1836 62.0391 61.1953V55.0957C62.0391 54.8379 62.0156 54.6328 61.9688 54.4805C61.9336 54.3281 61.8926 54.2109 61.8457 54.1289C61.8105 54.0352 61.7695 53.9648 61.7227 53.918C61.6875 53.8594 61.6699 53.8008 61.6699 53.7422C61.6699 53.6719 61.7051 53.6133 61.7754 53.5664C61.8457 53.5195 61.9395 53.4785 62.0566 53.4434C62.1738 53.4082 62.2969 53.3848 62.4258 53.373C62.5664 53.3496 62.7012 53.3379 62.8301 53.3379C63.4277 53.3379 63.8965 53.4961 64.2363 53.8125C64.5879 54.1172 64.7637 54.4863 64.7637 54.9199V61.2305C65.8652 61.2305 67.0254 61.2188 68.2441 61.1953C69.4746 61.1719 70.7051 61.1309 71.9355 61.0723C72.0996 60.8965 72.2285 60.832 72.3223 60.8789C72.4277 60.9258 72.4922 61.0371 72.5156 61.2129C72.5508 61.3887 72.5566 61.6055 72.5332 61.8633C72.5098 62.1211 72.4629 62.373 72.3926 62.6191C72.3223 62.8535 72.2227 63.0586 72.0938 63.2344C71.9766 63.4102 71.8418 63.498 71.6895 63.498C70.248 63.5332 68.9707 63.5566 67.8574 63.5684C66.7559 63.5684 65.7246 63.5684 64.7637 63.5684V74.9766C64.7637 75.5625 64.875 75.9844 65.0977 76.2422C65.3203 76.5 65.6191 76.6289 65.9941 76.6289C66.3574 76.6289 66.668 76.5 66.9258 76.2422C67.1953 75.9844 67.4238 75.6621 67.6113 75.2754C67.8105 74.8887 67.9688 74.4727 68.0859 74.0273C68.2148 73.5703 68.3203 73.1426 68.4023 72.7441C68.4727 72.3691 68.5898 72.0996 68.7539 71.9355C68.918 71.7598 69.0879 71.6719 69.2637 71.6719C69.4043 71.6719 69.5508 71.7188 69.7031 71.8125C69.8555 71.8945 69.9902 72.0059 70.1074 72.1465C70.2363 72.2871 70.3359 72.4453 70.4062 72.6211C70.4883 72.7969 70.5293 72.9727 70.5293 73.1484C70.5293 73.1719 70.5293 73.2012 70.5293 73.2363C70.5293 73.2715 70.5176 73.3242 70.4941 73.3945C70.3418 73.9922 70.1309 74.6191 69.8613 75.2754C69.6035 75.9316 69.2637 76.5352 68.8418 77.0859C68.4316 77.6367 67.9395 78.0938 67.3652 78.457C66.791 78.8203 66.1172 79.002 65.3438 79.002C64.8633 79.002 64.418 78.9258 64.0078 78.7734C63.6094 78.6328 63.2637 78.3984 62.9707 78.0703C62.6777 77.7539 62.4492 77.3438 62.2852 76.8398C62.1211 76.3359 62.0391 75.7266 62.0391 75.0117V63.5684C61.6406 63.5684 61.2832 63.5684 60.9668 63.5684C60.6621 63.5566 60.4043 63.5449 60.1934 63.5332C59.9473 63.5215 59.7305 63.5098 59.543 63.498C59.2617 63.498 59.0156 63.375 58.8047 63.1289C58.582 62.8711 58.4297 62.5898 58.3477 62.2852C58.2539 61.9805 58.2422 61.7051 58.3125 61.459C58.3711 61.2012 58.5293 61.0723 58.7871 61.0723ZM68.5781 66.0117C68.5781 65.6719 68.5488 65.4258 68.4902 65.2734C68.4434 65.1211 68.4199 64.9805 68.4199 64.8516C68.4199 64.6758 68.5137 64.5352 68.7012 64.4297C68.8887 64.3125 69.1113 64.2539 69.3691 64.2539C69.9668 64.2539 70.4355 64.4121 70.7754 64.7285C71.127 65.0332 71.3027 65.4023 71.3027 65.8359V67.4531C71.5488 66.9492 71.8125 66.4805 72.0938 66.0469C72.3867 65.6133 72.6973 65.2383 73.0254 64.9219C73.3652 64.5938 73.7227 64.3418 74.0977 64.166C74.4844 63.9785 74.9004 63.8848 75.3457 63.8848C75.9434 63.8848 76.4355 63.9961 76.8223 64.2188C77.209 64.4414 77.5137 64.7285 77.7363 65.0801C77.959 65.4316 78.1113 65.8242 78.1934 66.2578C78.2871 66.6914 78.334 67.1133 78.334 67.5234V74.9766C78.334 75.0586 78.3398 75.1934 78.3516 75.3809C78.3633 75.5566 78.3984 75.7383 78.457 75.9258C78.5156 76.1133 78.6035 76.2773 78.7207 76.418C78.8496 76.5586 79.0312 76.6289 79.2656 76.6289C79.6289 76.6289 79.9395 76.5 80.1973 76.2422C80.4668 75.9844 80.6953 75.6621 80.8828 75.2754C81.082 74.8887 81.2402 74.4727 81.3574 74.0273C81.4863 73.5703 81.5918 73.1426 81.6738 72.7441C81.7441 72.3691 81.8613 72.0996 82.0254 71.9355C82.1895 71.7598 82.3594 71.6719 82.5352 71.6719C82.6758 71.6719 82.8223 71.7188 82.9746 71.8125C83.127 71.8945 83.2617 72.0059 83.3789 72.1465C83.5078 72.2871 83.6074 72.4453 83.6777 72.6211C83.7598 72.7969 83.8008 72.9727 83.8008 73.1484C83.8008 73.1719 83.8008 73.2012 83.8008 73.2363C83.8008 73.2715 83.7891 73.3242 83.7656 73.3945C83.6133 73.9922 83.4023 74.6191 83.1328 75.2754C82.875 75.9316 82.5352 76.5352 82.1133 77.0859C81.7031 77.6367 81.2109 78.0938 80.6367 78.457C80.0625 78.8203 79.3887 79.002 78.6152 79.002C78.1348 79.002 77.707 78.9082 77.332 78.7207C76.9688 78.5449 76.6523 78.3047 76.3828 78C76.125 77.6953 75.9258 77.3379 75.7852 76.9277C75.6562 76.5176 75.5918 76.084 75.5918 75.627V68.3145C75.5918 68.0332 75.5859 67.7695 75.5742 67.5234C75.5625 67.2773 75.5273 67.0605 75.4688 66.873C75.4219 66.6855 75.3457 66.5391 75.2402 66.4336C75.1465 66.3164 75.0117 66.2578 74.8359 66.2578C74.5781 66.2578 74.2617 66.4336 73.8867 66.7852C73.5117 67.1367 73.1426 67.5938 72.7793 68.1562C72.416 68.7188 72.0938 69.3574 71.8125 70.0723C71.543 70.7754 71.373 71.4844 71.3027 72.1992V77.4551C71.3027 77.6309 71.2969 77.8125 71.2852 78C71.2852 78.1758 71.25 78.334 71.1797 78.4746C71.1211 78.627 71.0215 78.75 70.8809 78.8438C70.752 78.9492 70.5586 79.002 70.3008 79.002C70.125 79.002 69.9316 78.9785 69.7207 78.9316C69.5215 78.8965 69.334 78.8203 69.1582 78.7031C68.9941 78.5977 68.8535 78.4395 68.7363 78.2285C68.6309 78.0293 68.5781 77.7598 68.5781 77.4199V66.0117ZM89.8652 67.5234C89.8652 68.1914 89.748 68.877 89.5137 69.5801C89.291 70.2832 88.9512 70.9512 88.4941 71.584C88.0488 72.2051 87.4922 72.7676 86.8242 73.2715C86.168 73.7637 85.4062 74.1387 84.5391 74.3965C84.6562 74.7012 84.8086 74.9941 84.9961 75.2754C85.1953 75.5449 85.4297 75.7793 85.6992 75.9785C85.9688 76.1777 86.2793 76.3359 86.6309 76.4531C86.9941 76.5703 87.4102 76.6289 87.8789 76.6289C88.582 76.6289 89.1855 76.5 89.6895 76.2422C90.1934 75.9727 90.6152 75.6211 90.9551 75.1875C91.3066 74.7539 91.5879 74.2676 91.7988 73.7285C92.0098 73.1895 92.168 72.6445 92.2734 72.0938C92.3555 71.6953 92.5195 71.4316 92.7656 71.3027C93.0234 71.1621 93.2812 71.127 93.5391 71.1973C93.8086 71.2676 94.0371 71.4199 94.2246 71.6543C94.4238 71.877 94.5059 72.1465 94.4707 72.4629C94.4238 72.8262 94.3418 73.2422 94.2246 73.7109C94.1191 74.1797 93.9551 74.6543 93.7324 75.1348C93.5098 75.6152 93.2227 76.0898 92.8711 76.5586C92.5312 77.0156 92.1094 77.4258 91.6055 77.7891C91.1016 78.1523 90.5098 78.4453 89.8301 78.668C89.1504 78.8906 88.3711 79.002 87.4922 79.002C86.6719 79.002 85.875 78.8379 85.1016 78.5098C84.3398 78.1934 83.6602 77.7363 83.0625 77.1387C82.4766 76.5293 82.002 75.7852 81.6387 74.9062C81.2871 74.0156 81.1113 73.0078 81.1113 71.8828C81.1113 70.7461 81.2695 69.6914 81.5859 68.7188C81.9023 67.7344 82.3184 66.8848 82.834 66.1699C83.3496 65.4551 83.9355 64.8984 84.5918 64.5C85.248 64.0898 85.9219 63.8848 86.6133 63.8848C87.1172 63.8848 87.5684 63.9727 87.9668 64.1484C88.377 64.3242 88.7227 64.5762 89.0039 64.9043C89.2852 65.2207 89.4961 65.6016 89.6367 66.0469C89.7891 66.4922 89.8652 66.9844 89.8652 67.5234ZM84.0645 71.7773C84.0645 71.8828 84.0703 71.9883 84.082 72.0938C84.0938 72.1992 84.0996 72.3105 84.0996 72.4277C84.5449 72.2168 84.9492 71.9473 85.3125 71.6191C85.6758 71.291 85.9863 70.916 86.2441 70.4941C86.502 70.0723 86.7012 69.6152 86.8418 69.123C86.9824 68.6191 87.0527 68.0977 87.0527 67.5586C87.0527 67.1602 86.9824 66.8496 86.8418 66.627C86.7129 66.4043 86.5312 66.293 86.2969 66.293C86.0039 66.293 85.7402 66.3926 85.5059 66.5918C85.2832 66.791 85.084 67.0547 84.9082 67.3828C84.7441 67.6992 84.6035 68.0625 84.4863 68.4727C84.3809 68.8711 84.293 69.2754 84.2227 69.6855C84.1523 70.0957 84.1055 70.4883 84.082 70.8633C84.0586 71.2266 84.0527 71.5312 84.0645 71.7773ZM94.3125 73.0605C94.2188 73.4355 94.043 73.6699 93.7852 73.7637C93.5273 73.8457 93.2695 73.834 93.0117 73.7285C92.7656 73.623 92.5547 73.4414 92.3789 73.1836C92.2148 72.9258 92.168 72.6445 92.2383 72.3398C92.4141 71.543 92.666 70.6641 92.9941 69.7031C93.334 68.7305 93.668 67.7637 93.9961 66.8027C93.8203 66.5332 93.6797 66.2637 93.5742 65.9941C93.4688 65.7129 93.416 65.4199 93.416 65.1152C93.416 64.8105 93.5273 64.4941 93.75 64.166C93.9844 63.8262 94.2598 63.5156 94.5762 63.2344C94.9043 62.9531 95.2383 62.7246 95.5781 62.5488C95.9297 62.3613 96.2285 62.2676 96.4746 62.2676C96.9082 62.2676 97.2305 62.4141 97.4414 62.707C97.6641 63 97.7754 63.3926 97.7754 63.8848C97.7754 64.1543 97.7285 64.4238 97.6348 64.6934C97.5527 64.9512 97.459 65.1973 97.3535 65.4316C97.248 65.6543 97.1484 65.8477 97.0547 66.0117C96.9727 66.1758 96.9258 66.2812 96.9141 66.3281C97.3359 67.0781 97.7754 67.7402 98.2324 68.3145C98.6895 68.8887 99.1055 69.457 99.4805 70.0195C99.8672 70.582 100.184 71.1797 100.43 71.8125C100.676 72.4453 100.799 73.1895 100.799 74.0449C100.799 74.2559 100.781 74.4727 100.746 74.6953C100.723 74.918 100.682 75.1289 100.623 75.3281C101.045 75.2461 101.414 75.1172 101.73 74.9414C102.059 74.7656 102.34 74.5664 102.574 74.3438C102.82 74.1094 103.02 73.8574 103.172 73.5879C103.336 73.3184 103.471 73.0371 103.576 72.7441C103.705 72.4043 103.834 72.1582 103.963 72.0059C104.092 71.8535 104.238 71.7773 104.402 71.7773C104.555 71.7773 104.707 71.8301 104.859 71.9355C105.023 72.0293 105.164 72.1523 105.281 72.3047C105.41 72.457 105.51 72.6152 105.58 72.7793C105.662 72.9434 105.703 73.0898 105.703 73.2188C105.703 73.3945 105.656 73.6055 105.562 73.8516C105.469 74.0977 105.34 74.3496 105.176 74.6074C105.023 74.8652 104.848 75.1172 104.648 75.3633C104.449 75.5977 104.244 75.8027 104.033 75.9785C103.471 76.4355 102.809 76.8223 102.047 77.1387C101.285 77.4434 100.342 77.6367 99.2168 77.7188C98.7832 78.0938 98.2676 78.3984 97.6699 78.6328C97.084 78.8789 96.4219 79.002 95.6836 79.002C95.3086 79.002 94.9219 78.9551 94.5234 78.8613C94.1367 78.7676 93.7617 78.6445 93.3984 78.4922C93.0469 78.3516 92.7246 78.1934 92.4316 78.0176C92.1387 77.8418 91.9043 77.666 91.7285 77.4902C91.2832 77.0684 90.9961 76.6465 90.8672 76.2246C90.7383 75.791 90.709 75.4043 90.7793 75.0645C90.8379 74.7246 90.9609 74.4492 91.1484 74.2383C91.3359 74.0156 91.5293 73.9043 91.7285 73.9043C91.8457 73.9043 92.0273 73.957 92.2734 74.0625C92.5312 74.1562 92.8242 74.2852 93.1523 74.4492C93.4805 74.6016 93.8379 74.7656 94.2246 74.9414C94.6113 75.1172 94.998 75.2871 95.3848 75.4512C95.7715 75.6035 96.1465 75.7324 96.5098 75.8379C96.8848 75.9316 97.2246 75.9785 97.5293 75.9785C97.7285 75.7441 97.9102 75.4336 98.0742 75.0469C98.2383 74.6602 98.3203 74.2383 98.3203 73.7812C98.3203 73.2188 98.2441 72.6973 98.0918 72.2168C97.9395 71.7363 97.7402 71.291 97.4941 70.8809C97.248 70.4707 96.9668 70.0898 96.6504 69.7383C96.3457 69.375 96.0352 69.0352 95.7188 68.7188C95.4375 69.4102 95.1914 70.0957 94.9805 70.7754C94.7695 71.4434 94.5469 72.2051 94.3125 73.0605ZM105.809 73.0605C105.715 73.4355 105.539 73.6699 105.281 73.7637C105.023 73.8457 104.766 73.834 104.508 73.7285C104.262 73.623 104.051 73.4414 103.875 73.1836C103.711 72.9258 103.664 72.6445 103.734 72.3398C103.91 71.543 104.162 70.6641 104.49 69.7031C104.83 68.7305 105.164 67.7637 105.492 66.8027C105.316 66.5332 105.176 66.2637 105.07 65.9941C104.965 65.7129 104.912 65.4199 104.912 65.1152C104.912 64.8105 105.023 64.4941 105.246 64.166C105.48 63.8262 105.756 63.5156 106.072 63.2344C106.4 62.9531 106.734 62.7246 107.074 62.5488C107.426 62.3613 107.725 62.2676 107.971 62.2676C108.404 62.2676 108.727 62.4141 108.938 62.707C109.16 63 109.271 63.3926 109.271 63.8848C109.271 64.1543 109.225 64.4238 109.131 64.6934C109.049 64.9512 108.955 65.1973 108.85 65.4316C108.744 65.6543 108.645 65.8477 108.551 66.0117C108.469 66.1758 108.422 66.2812 108.41 66.3281C108.832 67.0781 109.271 67.7402 109.729 68.3145C110.186 68.8887 110.602 69.457 110.977 70.0195C111.363 70.582 111.68 71.1797 111.926 71.8125C112.172 72.4453 112.295 73.1895 112.295 74.0449C112.295 74.2559 112.277 74.4727 112.242 74.6953C112.219 74.918 112.178 75.1289 112.119 75.3281C112.541 75.2461 112.91 75.1172 113.227 74.9414C113.555 74.7656 113.836 74.5664 114.07 74.3438C114.316 74.1094 114.516 73.8574 114.668 73.5879C114.832 73.3184 114.967 73.0371 115.072 72.7441C115.201 72.4043 115.33 72.1582 115.459 72.0059C115.588 71.8535 115.734 71.7773 115.898 71.7773C116.051 71.7773 116.203 71.8301 116.355 71.9355C116.52 72.0293 116.66 72.1523 116.777 72.3047C116.906 72.457 117.006 72.6152 117.076 72.7793C117.158 72.9434 117.199 73.0898 117.199 73.2188C117.199 73.3945 117.152 73.6055 117.059 73.8516C116.965 74.0977 116.836 74.3496 116.672 74.6074C116.52 74.8652 116.344 75.1172 116.145 75.3633C115.945 75.5977 115.74 75.8027 115.529 75.9785C114.967 76.4355 114.305 76.8223 113.543 77.1387C112.781 77.4434 111.838 77.6367 110.713 77.7188C110.279 78.0938 109.764 78.3984 109.166 78.6328C108.58 78.8789 107.918 79.002 107.18 79.002C106.805 79.002 106.418 78.9551 106.02 78.8613C105.633 78.7676 105.258 78.6445 104.895 78.4922C104.543 78.3516 104.221 78.1934 103.928 78.0176C103.635 77.8418 103.4 77.666 103.225 77.4902C102.779 77.0684 102.492 76.6465 102.363 76.2246C102.234 75.791 102.205 75.4043 102.275 75.0645C102.334 74.7246 102.457 74.4492 102.645 74.2383C102.832 74.0156 103.025 73.9043 103.225 73.9043C103.342 73.9043 103.523 73.957 103.77 74.0625C104.027 74.1562 104.32 74.2852 104.648 74.4492C104.977 74.6016 105.334 74.7656 105.721 74.9414C106.107 75.1172 106.494 75.2871 106.881 75.4512C107.268 75.6035 107.643 75.7324 108.006 75.8379C108.381 75.9316 108.721 75.9785 109.025 75.9785C109.225 75.7441 109.406 75.4336 109.57 75.0469C109.734 74.6602 109.816 74.2383 109.816 73.7812C109.816 73.2188 109.74 72.6973 109.588 72.2168C109.436 71.7363 109.236 71.291 108.99 70.8809C108.744 70.4707 108.463 70.0898 108.146 69.7383C107.842 69.375 107.531 69.0352 107.215 68.7188C106.934 69.4102 106.688 70.0957 106.477 70.7754C106.266 71.4434 106.043 72.2051 105.809 73.0605Z" fill="#F65319"/>
</svg>
