<svg width="205" height="93" viewBox="0 0 205 93" fill="none" xmlns="http://www.w3.org/2000/svg">
<path d="M12.0682 62H1.52273L17.5909 15.4545H30.2727L46.3182 62H35.7727L24.1136 26.0909H23.75L12.0682 62ZM11.4091 43.7045H36.3182V51.3864H11.4091V43.7045ZM65.8864 62.6818C62.3106 62.6818 59.2348 61.9242 56.6591 60.4091C54.0985 58.8788 52.1288 56.7576 50.75 54.0455C49.3864 51.3333 48.7045 48.2121 48.7045 44.6818C48.7045 41.1061 49.3939 37.9697 50.7727 35.2727C52.1667 32.5606 54.1439 30.447 56.7045 28.9318C59.2652 27.4015 62.3106 26.6364 65.8409 26.6364C68.8864 26.6364 71.553 27.1894 73.8409 28.2955C76.1288 29.4015 77.9394 30.9545 79.2727 32.9545C80.6061 34.9545 81.3409 37.303 81.4773 40H72.3409C72.0833 38.2576 71.4015 36.8561 70.2955 35.7955C69.2045 34.7197 67.7727 34.1818 66 34.1818C64.5 34.1818 63.1894 34.5909 62.0682 35.4091C60.9621 36.2121 60.0985 37.3864 59.4773 38.9318C58.8561 40.4773 58.5455 42.3485 58.5455 44.5455C58.5455 46.7727 58.8485 48.6667 59.4545 50.2273C60.0758 51.7879 60.947 52.9773 62.0682 53.7955C63.1894 54.6136 64.5 55.0227 66 55.0227C67.1061 55.0227 68.0985 54.7955 68.9773 54.3409C69.8712 53.8864 70.6061 53.2273 71.1818 52.3636C71.7727 51.4848 72.1591 50.4318 72.3409 49.2045H81.4773C81.3258 51.8712 80.5985 54.2197 79.2955 56.25C78.0076 58.2652 76.2273 59.8409 73.9545 60.9773C71.6818 62.1136 68.9924 62.6818 65.8864 62.6818ZM110.744 75.0909V56.4091H110.449C109.994 57.3788 109.35 58.3409 108.517 59.2955C107.699 60.2348 106.631 61.0152 105.312 61.6364C104.009 62.2576 102.419 62.5682 100.54 62.5682C97.8883 62.5682 95.4867 61.8864 93.3352 60.5227C91.1989 59.1439 89.5019 57.1212 88.2443 54.4545C87.0019 51.7727 86.3807 48.4848 86.3807 44.5909C86.3807 40.5909 87.0246 37.2652 88.3125 34.6136C89.6004 31.947 91.3125 29.9545 93.4489 28.6364C95.6004 27.303 97.9564 26.6364 100.517 26.6364C102.472 26.6364 104.1 26.9697 105.403 27.6364C106.722 28.2879 107.782 29.1061 108.585 30.0909C109.403 31.0606 110.025 32.0152 110.449 32.9545H110.858V27.0909H120.403V75.0909H110.744ZM103.608 54.8636C105.169 54.8636 106.487 54.4394 107.562 53.5909C108.653 52.7273 109.487 51.5227 110.062 49.9773C110.653 48.4318 110.949 46.6212 110.949 44.5455C110.949 42.4697 110.661 40.6667 110.085 39.1364C109.509 37.6061 108.676 36.4242 107.585 35.5909C106.494 34.7576 105.169 34.3409 103.608 34.3409C102.017 34.3409 100.676 34.7727 99.5852 35.6364C98.4943 36.5 97.6686 37.697 97.108 39.2273C96.5473 40.7576 96.267 42.5303 96.267 44.5455C96.267 46.5758 96.5473 48.3712 97.108 49.9318C97.6837 51.4773 98.5095 52.6894 99.5852 53.5682C100.676 54.4318 102.017 54.8636 103.608 54.8636ZM150.562 47.1364V27.0909H160.244V62H150.949V55.6591H150.585C149.797 57.7045 148.487 59.3485 146.653 60.5909C144.835 61.8333 142.616 62.4545 139.994 62.4545C137.661 62.4545 135.608 61.9242 133.835 60.8636C132.063 59.803 130.676 58.2955 129.676 56.3409C128.691 54.3864 128.191 52.0455 128.176 49.3182V27.0909H137.858V47.5909C137.873 49.6515 138.426 51.2803 139.517 52.4773C140.608 53.6742 142.07 54.2727 143.903 54.2727C145.07 54.2727 146.161 54.0076 147.176 53.4773C148.191 52.9318 149.009 52.1288 149.631 51.0682C150.267 50.0076 150.578 48.697 150.562 47.1364ZM177.943 62.6591C175.716 62.6591 173.731 62.2727 171.989 61.5C170.246 60.7121 168.867 59.553 167.852 58.0227C166.852 56.4773 166.352 54.553 166.352 52.25C166.352 50.3106 166.708 48.6818 167.42 47.3636C168.133 46.0455 169.102 44.9848 170.33 44.1818C171.557 43.3788 172.951 42.7727 174.511 42.3636C176.087 41.9545 177.739 41.6667 179.466 41.5C181.496 41.2879 183.133 41.0909 184.375 40.9091C185.617 40.7121 186.519 40.4242 187.08 40.0455C187.64 39.6667 187.92 39.1061 187.92 38.3636V38.2273C187.92 36.7879 187.466 35.6742 186.557 34.8864C185.663 34.0985 184.39 33.7045 182.739 33.7045C180.996 33.7045 179.61 34.0909 178.58 34.8636C177.549 35.6212 176.867 36.5758 176.534 37.7273L167.58 37C168.034 34.8788 168.928 33.0455 170.261 31.5C171.595 29.9394 173.314 28.7424 175.42 27.9091C177.542 27.0606 179.996 26.6364 182.784 26.6364C184.723 26.6364 186.58 26.8636 188.352 27.3182C190.14 27.7727 191.723 28.4773 193.102 29.4318C194.496 30.3864 195.595 31.6136 196.398 33.1136C197.201 34.5985 197.602 36.3788 197.602 38.4545V62H188.42V57.1591H188.148C187.587 58.25 186.837 59.2121 185.898 60.0455C184.958 60.8636 183.83 61.5076 182.511 61.9773C181.193 62.4318 179.67 62.6591 177.943 62.6591ZM180.716 55.9773C182.14 55.9773 183.398 55.697 184.489 55.1364C185.58 54.5606 186.436 53.7879 187.057 52.8182C187.678 51.8485 187.989 50.75 187.989 49.5227V45.8182C187.686 46.0152 187.269 46.197 186.739 46.3636C186.223 46.5152 185.64 46.6591 184.989 46.7955C184.337 46.9167 183.686 47.0303 183.034 47.1364C182.383 47.2273 181.792 47.3106 181.261 47.3864C180.125 47.553 179.133 47.8182 178.284 48.1818C177.436 48.5455 176.777 49.0379 176.307 49.6591C175.837 50.2652 175.602 51.0227 175.602 51.9318C175.602 53.25 176.08 54.2576 177.034 54.9545C178.004 55.6364 179.231 55.9773 180.716 55.9773Z" fill="#04C3C8"/>
<path d="M145.541 74.9766C145.541 75.0586 145.547 75.1934 145.559 75.3809C145.57 75.5566 145.605 75.7383 145.664 75.9258C145.723 76.1133 145.811 76.2773 145.928 76.418C146.057 76.5586 146.238 76.6289 146.473 76.6289C146.836 76.6289 147.146 76.5 147.404 76.2422C147.674 75.9844 147.902 75.6621 148.09 75.2754C148.289 74.8887 148.447 74.4727 148.564 74.0273C148.693 73.5703 148.799 73.1426 148.881 72.7441C148.951 72.3809 149.057 72.1172 149.197 71.9531C149.35 71.7891 149.508 71.7012 149.672 71.6895C149.848 71.666 150.023 71.707 150.199 71.8125C150.375 71.918 150.527 72.0586 150.656 72.2344C150.785 72.3984 150.879 72.5859 150.938 72.7969C151.008 73.0078 151.02 73.207 150.973 73.3945C150.809 73.9922 150.592 74.6191 150.322 75.2754C150.064 75.9316 149.73 76.5352 149.32 77.0859C148.91 77.6367 148.418 78.0938 147.844 78.457C147.27 78.8203 146.596 79.002 145.822 79.002C145.342 79.002 144.914 78.9082 144.539 78.7207C144.176 78.5449 143.859 78.3047 143.59 78C143.332 77.6953 143.133 77.3379 142.992 76.9277C142.863 76.5176 142.799 76.084 142.799 75.627V67.1367L136.963 67.084V67.8926C137.783 68.9121 138.521 69.9668 139.178 71.0566C139.846 72.1348 140.408 73.2715 140.865 74.4668C141.334 75.6621 141.691 76.9219 141.938 78.2461C142.195 79.5703 142.324 80.9766 142.324 82.4648C142.324 83.9648 142.207 85.3477 141.973 86.6133C141.75 87.8906 141.428 88.9863 141.006 89.9004C140.596 90.8262 140.092 91.5469 139.494 92.0625C138.908 92.5781 138.258 92.8359 137.543 92.8359C136.91 92.8359 136.383 92.6777 135.961 92.3613C135.539 92.0566 135.199 91.6465 134.941 91.1309C134.695 90.627 134.514 90.0527 134.396 89.4082C134.291 88.7637 134.238 88.1074 134.238 87.4395V67.6992C134.203 67.6641 134.162 67.623 134.115 67.5762C134.08 67.5293 134.045 67.4883 134.01 67.4531C133.729 67.1602 133.471 66.8965 133.236 66.6621C133.014 66.4277 132.902 66.1641 132.902 65.8711C132.902 65.6836 132.967 65.502 133.096 65.3262C133.225 65.1504 133.436 65.0449 133.729 65.0098C133.787 65.0098 133.852 65.0039 133.922 64.9922C134.004 64.9805 134.109 64.9746 134.238 64.9746V55.0957C134.238 54.8379 134.215 54.6328 134.168 54.4805C134.133 54.3281 134.092 54.2109 134.045 54.1289C134.01 54.0352 133.969 53.9648 133.922 53.918C133.887 53.8594 133.869 53.8008 133.869 53.7422C133.869 53.6719 133.904 53.6133 133.975 53.5664C134.045 53.5195 134.139 53.4785 134.256 53.4434C134.373 53.4082 134.496 53.3848 134.625 53.373C134.766 53.3496 134.9 53.3379 135.029 53.3379C135.627 53.3379 136.096 53.4961 136.436 53.8125C136.787 54.1172 136.963 54.4863 136.963 54.9199V64.7812C137.771 64.7344 138.533 64.6758 139.248 64.6055C139.975 64.5352 140.619 64.4648 141.182 64.3945C141.744 64.3242 142.213 64.2656 142.588 64.2188C142.963 64.1719 143.203 64.1484 143.309 64.1484C143.801 64.1484 144.193 64.207 144.486 64.3242C144.779 64.4297 145.002 64.5762 145.154 64.7637C145.318 64.9395 145.424 65.1387 145.471 65.3613C145.518 65.584 145.541 65.8008 145.541 66.0117V74.9766ZM139.6 82.4648C139.6 81.6445 139.541 80.7891 139.424 79.8984C139.318 79.0078 139.154 78.1055 138.932 77.1914C138.709 76.2773 138.434 75.3633 138.105 74.4492C137.777 73.5352 137.396 72.6445 136.963 71.7773V87.4395C136.963 87.7207 136.975 88.0254 136.998 88.3535C137.021 88.6816 137.062 88.9805 137.121 89.25C137.191 89.5195 137.279 89.7422 137.385 89.918C137.502 90.1055 137.648 90.1992 137.824 90.1992C138.082 90.1992 138.322 90.0117 138.545 89.6367C138.768 89.2617 138.955 88.7285 139.107 88.0371C139.26 87.3574 139.377 86.543 139.459 85.5938C139.553 84.6562 139.6 83.6133 139.6 82.4648ZM144.346 60.6855C144.053 60.6855 143.771 60.627 143.502 60.5098C143.244 60.3926 143.016 60.2344 142.816 60.0352C142.629 59.8359 142.477 59.6074 142.359 59.3496C142.242 59.0801 142.184 58.793 142.184 58.4883C142.184 58.1719 142.242 57.8789 142.359 57.6094C142.477 57.3398 142.629 57.1113 142.816 56.9238C143.016 56.7246 143.244 56.5723 143.502 56.4668C143.771 56.3496 144.053 56.291 144.346 56.291C144.662 56.291 144.955 56.3496 145.225 56.4668C145.494 56.5723 145.723 56.7246 145.91 56.9238C146.109 57.1113 146.262 57.3398 146.367 57.6094C146.484 57.8789 146.543 58.1719 146.543 58.4883C146.543 58.793 146.484 59.0801 146.367 59.3496C146.262 59.6074 146.109 59.8359 145.91 60.0352C145.723 60.2344 145.494 60.3926 145.225 60.5098C144.955 60.627 144.662 60.6855 144.346 60.6855ZM145.787 61.0723C146.057 61.0957 146.355 61.1133 146.684 61.125C146.965 61.1484 147.305 61.166 147.703 61.1777C148.102 61.1777 148.547 61.1836 149.039 61.1953V55.0957C149.039 54.8379 149.016 54.6328 148.969 54.4805C148.934 54.3281 148.893 54.2109 148.846 54.1289C148.811 54.0352 148.77 53.9648 148.723 53.918C148.688 53.8594 148.67 53.8008 148.67 53.7422C148.67 53.6719 148.705 53.6133 148.775 53.5664C148.846 53.5195 148.939 53.4785 149.057 53.4434C149.174 53.4082 149.297 53.3848 149.426 53.373C149.566 53.3496 149.701 53.3379 149.83 53.3379C150.428 53.3379 150.896 53.4961 151.236 53.8125C151.588 54.1172 151.764 54.4863 151.764 54.9199V61.2305C152.865 61.2305 154.025 61.2188 155.244 61.1953C156.475 61.1719 157.705 61.1309 158.936 61.0723C159.1 60.8965 159.229 60.832 159.322 60.8789C159.428 60.9258 159.492 61.0371 159.516 61.2129C159.551 61.3887 159.557 61.6055 159.533 61.8633C159.51 62.1211 159.463 62.373 159.393 62.6191C159.322 62.8535 159.223 63.0586 159.094 63.2344C158.977 63.4102 158.842 63.498 158.689 63.498C157.248 63.5332 155.971 63.5566 154.857 63.5684C153.756 63.5684 152.725 63.5684 151.764 63.5684V74.9766C151.764 75.5625 151.875 75.9844 152.098 76.2422C152.32 76.5 152.619 76.6289 152.994 76.6289C153.357 76.6289 153.668 76.5 153.926 76.2422C154.195 75.9844 154.424 75.6621 154.611 75.2754C154.811 74.8887 154.969 74.4727 155.086 74.0273C155.215 73.5703 155.32 73.1426 155.402 72.7441C155.473 72.3691 155.59 72.0996 155.754 71.9355C155.918 71.7598 156.088 71.6719 156.264 71.6719C156.404 71.6719 156.551 71.7188 156.703 71.8125C156.855 71.8945 156.99 72.0059 157.107 72.1465C157.236 72.2871 157.336 72.4453 157.406 72.6211C157.488 72.7969 157.529 72.9727 157.529 73.1484C157.529 73.1719 157.529 73.2012 157.529 73.2363C157.529 73.2715 157.518 73.3242 157.494 73.3945C157.342 73.9922 157.131 74.6191 156.861 75.2754C156.604 75.9316 156.264 76.5352 155.842 77.0859C155.432 77.6367 154.939 78.0938 154.365 78.457C153.791 78.8203 153.117 79.002 152.344 79.002C151.863 79.002 151.418 78.9258 151.008 78.7734C150.609 78.6328 150.264 78.3984 149.971 78.0703C149.678 77.7539 149.449 77.3438 149.285 76.8398C149.121 76.3359 149.039 75.7266 149.039 75.0117V63.5684C148.641 63.5684 148.283 63.5684 147.967 63.5684C147.662 63.5566 147.404 63.5449 147.193 63.5332C146.947 63.5215 146.73 63.5098 146.543 63.498C146.262 63.498 146.016 63.375 145.805 63.1289C145.582 62.8711 145.43 62.5898 145.348 62.2852C145.254 61.9805 145.242 61.7051 145.312 61.459C145.371 61.2012 145.529 61.0723 145.787 61.0723ZM155.578 66.0117C155.578 65.6719 155.549 65.4258 155.49 65.2734C155.443 65.1211 155.42 64.9805 155.42 64.8516C155.42 64.6758 155.514 64.5352 155.701 64.4297C155.889 64.3125 156.111 64.2539 156.369 64.2539C156.967 64.2539 157.436 64.4121 157.775 64.7285C158.127 65.0332 158.303 65.4023 158.303 65.8359V67.4531C158.549 66.9492 158.812 66.4805 159.094 66.0469C159.387 65.6133 159.697 65.2383 160.025 64.9219C160.365 64.5938 160.723 64.3418 161.098 64.166C161.484 63.9785 161.9 63.8848 162.346 63.8848C162.943 63.8848 163.436 63.9961 163.822 64.2188C164.209 64.4414 164.514 64.7285 164.736 65.0801C164.959 65.4316 165.111 65.8242 165.193 66.2578C165.287 66.6914 165.334 67.1133 165.334 67.5234V74.9766C165.334 75.0586 165.34 75.1934 165.352 75.3809C165.363 75.5566 165.398 75.7383 165.457 75.9258C165.516 76.1133 165.604 76.2773 165.721 76.418C165.85 76.5586 166.031 76.6289 166.266 76.6289C166.629 76.6289 166.939 76.5 167.197 76.2422C167.467 75.9844 167.695 75.6621 167.883 75.2754C168.082 74.8887 168.24 74.4727 168.357 74.0273C168.486 73.5703 168.592 73.1426 168.674 72.7441C168.744 72.3691 168.861 72.0996 169.025 71.9355C169.189 71.7598 169.359 71.6719 169.535 71.6719C169.676 71.6719 169.822 71.7188 169.975 71.8125C170.127 71.8945 170.262 72.0059 170.379 72.1465C170.508 72.2871 170.607 72.4453 170.678 72.6211C170.76 72.7969 170.801 72.9727 170.801 73.1484C170.801 73.1719 170.801 73.2012 170.801 73.2363C170.801 73.2715 170.789 73.3242 170.766 73.3945C170.613 73.9922 170.402 74.6191 170.133 75.2754C169.875 75.9316 169.535 76.5352 169.113 77.0859C168.703 77.6367 168.211 78.0938 167.637 78.457C167.062 78.8203 166.389 79.002 165.615 79.002C165.135 79.002 164.707 78.9082 164.332 78.7207C163.969 78.5449 163.652 78.3047 163.383 78C163.125 77.6953 162.926 77.3379 162.785 76.9277C162.656 76.5176 162.592 76.084 162.592 75.627V68.3145C162.592 68.0332 162.586 67.7695 162.574 67.5234C162.562 67.2773 162.527 67.0605 162.469 66.873C162.422 66.6855 162.346 66.5391 162.24 66.4336C162.146 66.3164 162.012 66.2578 161.836 66.2578C161.578 66.2578 161.262 66.4336 160.887 66.7852C160.512 67.1367 160.143 67.5938 159.779 68.1562C159.416 68.7188 159.094 69.3574 158.812 70.0723C158.543 70.7754 158.373 71.4844 158.303 72.1992V77.4551C158.303 77.6309 158.297 77.8125 158.285 78C158.285 78.1758 158.25 78.334 158.18 78.4746C158.121 78.627 158.021 78.75 157.881 78.8438C157.752 78.9492 157.559 79.002 157.301 79.002C157.125 79.002 156.932 78.9785 156.721 78.9316C156.521 78.8965 156.334 78.8203 156.158 78.7031C155.994 78.5977 155.854 78.4395 155.736 78.2285C155.631 78.0293 155.578 77.7598 155.578 77.4199V66.0117ZM176.865 67.5234C176.865 68.1914 176.748 68.877 176.514 69.5801C176.291 70.2832 175.951 70.9512 175.494 71.584C175.049 72.2051 174.492 72.7676 173.824 73.2715C173.168 73.7637 172.406 74.1387 171.539 74.3965C171.656 74.7012 171.809 74.9941 171.996 75.2754C172.195 75.5449 172.43 75.7793 172.699 75.9785C172.969 76.1777 173.279 76.3359 173.631 76.4531C173.994 76.5703 174.41 76.6289 174.879 76.6289C175.582 76.6289 176.186 76.5 176.689 76.2422C177.193 75.9727 177.615 75.6211 177.955 75.1875C178.307 74.7539 178.588 74.2676 178.799 73.7285C179.01 73.1895 179.168 72.6445 179.273 72.0938C179.355 71.6953 179.52 71.4316 179.766 71.3027C180.023 71.1621 180.281 71.127 180.539 71.1973C180.809 71.2676 181.037 71.4199 181.225 71.6543C181.424 71.877 181.506 72.1465 181.471 72.4629C181.424 72.8262 181.342 73.2422 181.225 73.7109C181.119 74.1797 180.955 74.6543 180.732 75.1348C180.51 75.6152 180.223 76.0898 179.871 76.5586C179.531 77.0156 179.109 77.4258 178.605 77.7891C178.102 78.1523 177.51 78.4453 176.83 78.668C176.15 78.8906 175.371 79.002 174.492 79.002C173.672 79.002 172.875 78.8379 172.102 78.5098C171.34 78.1934 170.66 77.7363 170.062 77.1387C169.477 76.5293 169.002 75.7852 168.639 74.9062C168.287 74.0156 168.111 73.0078 168.111 71.8828C168.111 70.7461 168.27 69.6914 168.586 68.7188C168.902 67.7344 169.318 66.8848 169.834 66.1699C170.35 65.4551 170.936 64.8984 171.592 64.5C172.248 64.0898 172.922 63.8848 173.613 63.8848C174.117 63.8848 174.568 63.9727 174.967 64.1484C175.377 64.3242 175.723 64.5762 176.004 64.9043C176.285 65.2207 176.496 65.6016 176.637 66.0469C176.789 66.4922 176.865 66.9844 176.865 67.5234ZM171.064 71.7773C171.064 71.8828 171.07 71.9883 171.082 72.0938C171.094 72.1992 171.1 72.3105 171.1 72.4277C171.545 72.2168 171.949 71.9473 172.312 71.6191C172.676 71.291 172.986 70.916 173.244 70.4941C173.502 70.0723 173.701 69.6152 173.842 69.123C173.982 68.6191 174.053 68.0977 174.053 67.5586C174.053 67.1602 173.982 66.8496 173.842 66.627C173.713 66.4043 173.531 66.293 173.297 66.293C173.004 66.293 172.74 66.3926 172.506 66.5918C172.283 66.791 172.084 67.0547 171.908 67.3828C171.744 67.6992 171.604 68.0625 171.486 68.4727C171.381 68.8711 171.293 69.2754 171.223 69.6855C171.152 70.0957 171.105 70.4883 171.082 70.8633C171.059 71.2266 171.053 71.5312 171.064 71.7773ZM181.312 73.0605C181.219 73.4355 181.043 73.6699 180.785 73.7637C180.527 73.8457 180.27 73.834 180.012 73.7285C179.766 73.623 179.555 73.4414 179.379 73.1836C179.215 72.9258 179.168 72.6445 179.238 72.3398C179.414 71.543 179.666 70.6641 179.994 69.7031C180.334 68.7305 180.668 67.7637 180.996 66.8027C180.82 66.5332 180.68 66.2637 180.574 65.9941C180.469 65.7129 180.416 65.4199 180.416 65.1152C180.416 64.8105 180.527 64.4941 180.75 64.166C180.984 63.8262 181.26 63.5156 181.576 63.2344C181.904 62.9531 182.238 62.7246 182.578 62.5488C182.93 62.3613 183.229 62.2676 183.475 62.2676C183.908 62.2676 184.23 62.4141 184.441 62.707C184.664 63 184.775 63.3926 184.775 63.8848C184.775 64.1543 184.729 64.4238 184.635 64.6934C184.553 64.9512 184.459 65.1973 184.354 65.4316C184.248 65.6543 184.148 65.8477 184.055 66.0117C183.973 66.1758 183.926 66.2812 183.914 66.3281C184.336 67.0781 184.775 67.7402 185.232 68.3145C185.689 68.8887 186.105 69.457 186.48 70.0195C186.867 70.582 187.184 71.1797 187.43 71.8125C187.676 72.4453 187.799 73.1895 187.799 74.0449C187.799 74.2559 187.781 74.4727 187.746 74.6953C187.723 74.918 187.682 75.1289 187.623 75.3281C188.045 75.2461 188.414 75.1172 188.73 74.9414C189.059 74.7656 189.34 74.5664 189.574 74.3438C189.82 74.1094 190.02 73.8574 190.172 73.5879C190.336 73.3184 190.471 73.0371 190.576 72.7441C190.705 72.4043 190.834 72.1582 190.963 72.0059C191.092 71.8535 191.238 71.7773 191.402 71.7773C191.555 71.7773 191.707 71.8301 191.859 71.9355C192.023 72.0293 192.164 72.1523 192.281 72.3047C192.41 72.457 192.51 72.6152 192.58 72.7793C192.662 72.9434 192.703 73.0898 192.703 73.2188C192.703 73.3945 192.656 73.6055 192.562 73.8516C192.469 74.0977 192.34 74.3496 192.176 74.6074C192.023 74.8652 191.848 75.1172 191.648 75.3633C191.449 75.5977 191.244 75.8027 191.033 75.9785C190.471 76.4355 189.809 76.8223 189.047 77.1387C188.285 77.4434 187.342 77.6367 186.217 77.7188C185.783 78.0938 185.268 78.3984 184.67 78.6328C184.084 78.8789 183.422 79.002 182.684 79.002C182.309 79.002 181.922 78.9551 181.523 78.8613C181.137 78.7676 180.762 78.6445 180.398 78.4922C180.047 78.3516 179.725 78.1934 179.432 78.0176C179.139 77.8418 178.904 77.666 178.729 77.4902C178.283 77.0684 177.996 76.6465 177.867 76.2246C177.738 75.791 177.709 75.4043 177.779 75.0645C177.838 74.7246 177.961 74.4492 178.148 74.2383C178.336 74.0156 178.529 73.9043 178.729 73.9043C178.846 73.9043 179.027 73.957 179.273 74.0625C179.531 74.1562 179.824 74.2852 180.152 74.4492C180.48 74.6016 180.838 74.7656 181.225 74.9414C181.611 75.1172 181.998 75.2871 182.385 75.4512C182.771 75.6035 183.146 75.7324 183.51 75.8379C183.885 75.9316 184.225 75.9785 184.529 75.9785C184.729 75.7441 184.91 75.4336 185.074 75.0469C185.238 74.6602 185.32 74.2383 185.32 73.7812C185.32 73.2188 185.244 72.6973 185.092 72.2168C184.939 71.7363 184.74 71.291 184.494 70.8809C184.248 70.4707 183.967 70.0898 183.65 69.7383C183.346 69.375 183.035 69.0352 182.719 68.7188C182.438 69.4102 182.191 70.0957 181.98 70.7754C181.77 71.4434 181.547 72.2051 181.312 73.0605ZM192.809 73.0605C192.715 73.4355 192.539 73.6699 192.281 73.7637C192.023 73.8457 191.766 73.834 191.508 73.7285C191.262 73.623 191.051 73.4414 190.875 73.1836C190.711 72.9258 190.664 72.6445 190.734 72.3398C190.91 71.543 191.162 70.6641 191.49 69.7031C191.83 68.7305 192.164 67.7637 192.492 66.8027C192.316 66.5332 192.176 66.2637 192.07 65.9941C191.965 65.7129 191.912 65.4199 191.912 65.1152C191.912 64.8105 192.023 64.4941 192.246 64.166C192.48 63.8262 192.756 63.5156 193.072 63.2344C193.4 62.9531 193.734 62.7246 194.074 62.5488C194.426 62.3613 194.725 62.2676 194.971 62.2676C195.404 62.2676 195.727 62.4141 195.938 62.707C196.16 63 196.271 63.3926 196.271 63.8848C196.271 64.1543 196.225 64.4238 196.131 64.6934C196.049 64.9512 195.955 65.1973 195.85 65.4316C195.744 65.6543 195.645 65.8477 195.551 66.0117C195.469 66.1758 195.422 66.2812 195.41 66.3281C195.832 67.0781 196.271 67.7402 196.729 68.3145C197.186 68.8887 197.602 69.457 197.977 70.0195C198.363 70.582 198.68 71.1797 198.926 71.8125C199.172 72.4453 199.295 73.1895 199.295 74.0449C199.295 74.2559 199.277 74.4727 199.242 74.6953C199.219 74.918 199.178 75.1289 199.119 75.3281C199.541 75.2461 199.91 75.1172 200.227 74.9414C200.555 74.7656 200.836 74.5664 201.07 74.3438C201.316 74.1094 201.516 73.8574 201.668 73.5879C201.832 73.3184 201.967 73.0371 202.072 72.7441C202.201 72.4043 202.33 72.1582 202.459 72.0059C202.588 71.8535 202.734 71.7773 202.898 71.7773C203.051 71.7773 203.203 71.8301 203.355 71.9355C203.52 72.0293 203.66 72.1523 203.777 72.3047C203.906 72.457 204.006 72.6152 204.076 72.7793C204.158 72.9434 204.199 73.0898 204.199 73.2188C204.199 73.3945 204.152 73.6055 204.059 73.8516C203.965 74.0977 203.836 74.3496 203.672 74.6074C203.52 74.8652 203.344 75.1172 203.145 75.3633C202.945 75.5977 202.74 75.8027 202.529 75.9785C201.967 76.4355 201.305 76.8223 200.543 77.1387C199.781 77.4434 198.838 77.6367 197.713 77.7188C197.279 78.0938 196.764 78.3984 196.166 78.6328C195.58 78.8789 194.918 79.002 194.18 79.002C193.805 79.002 193.418 78.9551 193.02 78.8613C192.633 78.7676 192.258 78.6445 191.895 78.4922C191.543 78.3516 191.221 78.1934 190.928 78.0176C190.635 77.8418 190.4 77.666 190.225 77.4902C189.779 77.0684 189.492 76.6465 189.363 76.2246C189.234 75.791 189.205 75.4043 189.275 75.0645C189.334 74.7246 189.457 74.4492 189.645 74.2383C189.832 74.0156 190.025 73.9043 190.225 73.9043C190.342 73.9043 190.523 73.957 190.77 74.0625C191.027 74.1562 191.32 74.2852 191.648 74.4492C191.977 74.6016 192.334 74.7656 192.721 74.9414C193.107 75.1172 193.494 75.2871 193.881 75.4512C194.268 75.6035 194.643 75.7324 195.006 75.8379C195.381 75.9316 195.721 75.9785 196.025 75.9785C196.225 75.7441 196.406 75.4336 196.57 75.0469C196.734 74.6602 196.816 74.2383 196.816 73.7812C196.816 73.2188 196.74 72.6973 196.588 72.2168C196.436 71.7363 196.236 71.291 195.99 70.8809C195.744 70.4707 195.463 70.0898 195.146 69.7383C194.842 69.375 194.531 69.0352 194.215 68.7188C193.934 69.4102 193.688 70.0957 193.477 70.7754C193.266 71.4434 193.043 72.2051 192.809 73.0605Z" fill="#F65319"/>
</svg>
